# xmcd
# 
# Track frame offsets:
#     150
#     16299
#     31965
#     47659
#     64562
#     77057
#     93007
#     107335
#     123720
#     139821
#     156031
#     171128
#     195820
#     225730
# 
# Disc length: 3408
# 
# Revision: 2
# Processed by: cddbd v1.5.2PL0 Copyright (c) Steve Scherf et al.
# Submitted via: fre:ac v1.0.27
# 
DISCID=a10d4e0e
DTITLE=Ayo - Gravity at last
DYEAR=2008
DGENRE=Soul
TTITLE0=I am not afraid
TTITLE1=Maybe (Ayo blues)
TTITLE2=Slow Slow (Run Run
TTITLE3=Love and hate
TTITLE4=Get out of my way
TTITLE5=Better days
TTITLE6=Change
TTITLE7=Piece of joy
TTITLE8=Lonely
TTITLE9=Sometimes
TTITLE10=What's this all about?
TTITLE11=Mother
TTITLE12=Thank you
TTITLE13=DATA
EXTD=
EXTT0=
EXTT1=
EXTT2=
EXTT3=
EXTT4=
EXTT5=
EXTT6=
EXTT7=
EXTT8=
EXTT9=
EXTT10=
EXTT11=
EXTT12=
EXTT13=
PLAYORDER=
